<?xml version="1.0" encoding="UTF-8" standalone="no"?>
<!-- Created with Inkscape (http://www.inkscape.org/) -->

<svg
   width="210mm"
   height="210mm"
   viewBox="0 0 210 210"
   version="1.1"
   id="svg1"
   inkscape:version="1.3 (0e150ed6c4, 2023-07-21)"
   sodipodi:docname="рисунок.svg"
   inkscape:export-filename="logo.png"
   inkscape:export-xdpi="96"
   inkscape:export-ydpi="96"
   xml:space="preserve"
   xmlns:inkscape="http://www.inkscape.org/namespaces/inkscape"
   xmlns:sodipodi="http://sodipodi.sourceforge.net/DTD/sodipodi-0.dtd"
   xmlns="http://www.w3.org/2000/svg"
   xmlns:svg="http://www.w3.org/2000/svg"><sodipodi:namedview
     id="namedview1"
     pagecolor="#505050"
     bordercolor="#eeeeee"
     borderopacity="1"
     inkscape:showpageshadow="0"
     inkscape:pageopacity="0"
     inkscape:pagecheckerboard="0"
     inkscape:deskcolor="#505050"
     inkscape:document-units="mm"
     inkscape:zoom="0.70110129"
     inkscape:cx="687.48982"
     inkscape:cy="331.62113"
     inkscape:window-width="1920"
     inkscape:window-height="1001"
     inkscape:window-x="-9"
     inkscape:window-y="-9"
     inkscape:window-maximized="1"
     inkscape:current-layer="layer1" /><defs
     id="defs1"><rect
       x="264.24423"
       y="387.28928"
       width="259.20142"
       height="177.50758"
       id="rect157" /></defs><g
     inkscape:label="Слой 1"
     inkscape:groupmode="layer"
     id="layer1"><g
       id="g158"
       transform="matrix(1.1235632,0,0,1.1235632,-13.795729,-95.868023)"><circle
         style="opacity:1;fill:#148517;fill-opacity:1;stroke-width:0.264999"
         id="path152"
         cx="105.55117"
         cy="178.48453"
         r="92.863693" /><path
         style="fill:#033800;fill-opacity:1;stroke-width:1.15438"
         d="m 112.09668,163.93732 c -0.29963,-0.14644 -0.47098,-0.39048 -0.77109,-1.09826 -0.41805,-0.98592 -0.94686,-1.70514 -1.96358,-2.67058 -1.07452,-1.02035 -1.96064,-1.64745 -4.91073,-3.47538 -0.85211,-0.52797 -1.41862,-0.98372 -1.41862,-1.14126 0,-0.0544 0.0618,-0.10597 0.15354,-0.12824 0.1403,-0.0342 0.36915,-0.003 1.63305,0.22129 1.41921,0.25198 4.29099,0.51907 5.70099,0.53022 l 1.0391,0.008 0.31881,-0.21041 c 1.09172,-0.72051 1.72825,-2.74112 1.92841,-6.12163 0.11607,-1.96013 0.18175,-5.52682 0.14546,-7.89838 -0.0368,-2.40296 -0.11669,-4.73056 -0.16397,-4.77602 -0.0559,-0.0537 -9.77796,1.335 -13.04447,1.86322 -0.72162,0.1167 -1.575837,0.2388 -1.898267,0.27134 -1.6171,0.1632 -3.62171,-0.23792 -5.340927,-1.06873 l -0.443867,-0.21449 -0.721467,0.92102 c -1.563687,1.99619 -3.327559,3.90602 -5.55954,6.01956 -1.862624,1.76378 -3.349994,2.90766 -5.364838,4.1259 -1.51316,0.91491 -3.454727,1.87859 -5.097269,2.52998 -1.872642,0.74266 -3.766381,1.19701 -4.069951,0.97649 -0.33778,-0.24538 0.442664,-0.96219 2.702087,-2.48178 3.599462,-2.42085 6.684258,-4.88969 9.519218,-7.61848 2.096326,-2.01782 4.185693,-4.55536 6.849558,-8.31876 1.583682,-2.23736 4.795356,-7.17773 4.715836,-7.25416 -0.0672,-0.0645 -9.480031,1.36482 -12.123706,1.84103 -0.998633,0.17988 -1.109865,0.18949 -1.898261,0.16392 -0.905837,-0.0294 -1.483434,-0.13906 -2.456571,-0.46646 -0.708704,-0.23844 -1.857766,-0.79305 -2.543351,-1.22761 -1.319637,-0.83642 -1.79393,-1.3957 -1.442776,-1.7013 0.110462,-0.0962 0.264416,-0.10424 2.582193,-0.13611 1.355599,-0.0186 2.778776,-0.0492 3.162616,-0.068 3.120664,-0.15236 4.0047,-0.20198 4.466495,-0.25074 1.55696,-0.16441 11.516291,-1.3646 11.754361,-1.41651 0.12415,-0.027 0.16409,-0.0974 0.79265,-1.39691 0.70091,-1.44903 1.792657,-3.98314 1.997447,-4.63637 l 0.0404,-0.1288 -0.690377,0.0314 c -0.839,0.0382 -1.5371,0.15192 -2.41164,0.39298 -0.99939,0.27546 -1.58692,0.23327 -2.70047,-0.19388 -0.871717,-0.33439 -2.233991,-1.13389 -2.819227,-1.65455 -0.418239,-0.3721 -0.538178,-0.60321 -0.410354,-0.79071 0.226768,-0.33264 0.627066,-0.39159 3.073151,-0.45255 2.43469,-0.0607 4.95911,-0.25188 6.923097,-0.52432 l 0.27915,-0.0388 0.39643,-0.76138 c 0.46523,-0.89355 0.87865,-1.8756 1.26075,-2.99491 0.27673,-0.81064 0.79703,-2.64956 0.75979,-2.68536 -0.0115,-0.0104 -0.27042,0.004 -0.57644,0.0309 -1.93464,0.17444 -3.01283,0.28055 -3.822527,0.37622 -0.9517,0.11243 -1.06042,0.12079 -2.79158,0.21443 -0.56809,0.0307 -1.41699,0.10321 -1.88645,0.16102 -1.773774,0.21846 -2.6769,0.0844 -4.17125,-0.61953 -1.151425,-0.54233 -2.162024,-1.27629 -2.432473,-1.76661 -0.126421,-0.22921 -0.12991,-0.25628 -0.05072,-0.39337 0.05724,-0.0991 0.175896,-0.17716 0.362903,-0.23878 0.247998,-0.0817 0.598846,-0.0918 3.264827,-0.0937 l 2.986973,-0.002 3.15448,-0.29534 c 1.73496,-0.16243 3.917947,-0.36572 4.851087,-0.45173 1.07738,-0.0993 1.71141,-0.17942 1.73718,-0.21948 0.11463,-0.17826 0.47441,-2.55635 0.55202,-3.6487 0.22527,-3.170755 0.21528,-3.574462 -0.11001,-4.447989 -0.28118,-0.754924 -0.33382,-1.007144 -0.25714,-1.232111 0.10759,-0.315469 0.2588,-0.354117 1.12177,-0.286609 1.20634,0.09431 2.19504,0.389096 3.8062,1.134633 1.00394,0.464557 1.46173,0.741957 1.77567,1.075934 0.45962,0.488967 0.46728,0.813114 0.0343,1.448711 -0.54295,0.796947 -1.27896,2.446091 -2.02968,4.547801 -0.17131,0.47959 -0.28889,0.87199 -0.2613,0.87199 0.10493,0 1.87867,-0.2274 3.37986,-0.43333 2.83187,-0.38845 5.31772,-0.81312 7.07721,-1.20902 1.2595,-0.2834 1.94476,-0.36116 2.86074,-0.32464 1.82418,0.0727 3.25922,0.68808 4.76814,2.04461 1.02525,0.9217 0.78548,1.5229 -0.72956,1.82922 -0.51685,0.10447 -0.91365,0.12577 -3.50634,0.18795 -3.47095,0.0832 -5.66663,0.24061 -12.00555,0.86036 -2.56377,0.25065 -2.76126,0.27252 -2.79961,0.30993 -0.0197,0.0193 -0.25477,0.71122 -0.52219,1.53761 -0.26741,0.82638 -0.73619,2.24781 -1.04173,3.15871 -0.30553,0.91091 -0.54106,1.6701 -0.52337,1.6871 0.0801,0.077 8.74266,-1.21875 9.97025,-1.49139 1.23308,-0.27387 2.28093,-0.25454 3.26872,0.0603 0.66092,0.21063 1.18003,0.52031 1.99956,1.19283 0.90379,0.74167 1.14163,1.13294 0.89466,1.47183 -0.23241,0.31891 -0.74952,0.44161 -2.76842,0.65686 -1.68474,0.17964 -4.17988,0.48071 -5.32945,0.64309 -0.40811,0.0576 -1.55353,0.17659 -2.5454,0.26434 -0.99186,0.0877 -2.35612,0.22111 -3.03167,0.29635 -1.19574,0.13317 -3.72993,0.45427 -3.7463,0.47467 -0.005,0.006 -0.18508,0.40861 -0.40131,0.89559 -0.59411,1.33799 -1.17125,2.51664 -1.93868,3.95916 l -0.69369,1.30388 0.1797,-0.0306 c 0.0988,-0.0167 1.91324,-0.27045 4.03204,-0.56367 2.11879,-0.29321 5.0583,-0.70404 6.53225,-0.91293 4.75799,-0.67433 5.15947,-0.72883 7.67679,-1.04219 1.82363,-0.22701 4.50293,-0.50104 6.0856,-0.62241 0.41455,-0.0318 1.14313,-0.10493 1.6191,-0.16266 1.52904,-0.18528 2.73332,-0.2646 4.02131,-0.26488 1.96436,-4.1e-4 2.65785,0.11782 3.76714,0.64224 0.79793,0.37724 1.43003,0.82483 2.17214,1.53808 0.71364,0.68591 0.88429,0.92634 0.91566,1.29001 0.0229,0.26434 0.0118,0.29543 -0.16381,0.46376 -0.22213,0.21288 -0.63284,0.37029 -1.3134,0.50341 -0.73958,0.14466 -4.23822,0.13702 -5.7421,-0.0126 -1.44976,-0.14417 -6.29878,-0.14801 -8.62591,-0.007 -5.06207,0.3071 -11.22329,0.91852 -17.41934,1.72864 -2.41014,0.31513 -4.67264,0.61895 -4.81515,0.64661 -0.11719,0.0227 -0.19763,0.1077 -0.34193,0.36091 -1.873127,3.28771 -3.350657,5.65068 -5.181427,8.28648 l -0.71748,1.03299 0.93587,-4e-5 c 2.65939,-8e-5 5.313207,-0.23988 13.944557,-1.26002 0.61414,-0.0726 1.74473,-0.20554 2.5124,-0.29546 0.76768,-0.0899 1.42238,-0.17261 1.45487,-0.18376 0.0666,-0.0229 0.0233,-0.59825 -0.11758,-1.5609 -0.23135,-1.58042 -0.61516,-2.87185 -1.19956,-4.03626 -0.18935,-0.37726 -0.36976,-0.80668 -0.40091,-0.95424 -0.18907,-0.89581 0.6879,-0.98276 2.76057,-0.27369 2.21404,0.75744 3.56295,1.42267 3.85341,1.90038 0.10794,0.17756 0.126,0.39551 0.0448,0.54136 -0.12917,0.23197 -0.31647,1.36346 -0.58822,3.55334 l -0.0308,0.24792 0.57324,-0.10193 c 5.00714,-0.89035 7.98346,-1.38239 8.7152,-1.44077 2.0685,-0.16503 4.07947,0.52993 5.85809,2.02446 2.36833,1.99003 0.90864,2.77502 -4.36918,2.34968 -3.18705,-0.25685 -6.66553,-0.255 -9.74255,0.005 -0.55272,0.0468 -1.01085,0.0904 -1.01804,0.0971 -0.0156,0.0144 0.11793,4.66033 0.23682,8.24185 0.0979,2.94937 0.23012,6.13307 0.30754,7.40527 0.079,1.29732 0.0672,2.64193 -0.0294,3.34973 -0.25807,1.89219 -1.13518,3.81788 -2.41467,5.30143 -0.14555,0.16875 -0.46561,0.54304 -0.71127,0.83175 -1.43036,1.68107 -2.38636,2.2855 -3.07927,1.94689 z m -10.71103,-13.58845 c -0.46502,-0.15932 -0.95855,-0.62899 -1.514777,-1.44157 -0.42184,-0.61623 -1.4715,-2.77287 -2.4788,-5.09292 -0.70563,-1.62522 -0.79763,-2.02708 -0.52426,-2.28983 0.13475,-0.12951 0.17005,-0.13673 0.54436,-0.11151 0.51511,0.0348 0.98984,0.19018 1.93027,0.63197 1.603447,0.75324 2.632927,1.36628 3.220027,1.91746 1.30009,1.22059 1.58941,2.72661 0.87873,4.57408 -0.55843,1.45168 -1.27195,2.08076 -2.05555,1.81228 z"
         id="path158"
         sodipodi:nodetypes="cssssccccssssssscsssssssssscsssccscssccsssscccssccssccsssccscsssscssssssssssssssssssssscsscssccscsccssssssccsscscssssssssssscssssccssssscccssssssscc" /><g
         id="g155"
         transform="rotate(-39.314693,-54.107964,-61.625223)"><path
           style="opacity:1;fill:#44240a;fill-opacity:1;stroke-width:0.32611"
           d="m -110.47577,134.61726 5.60384,172.96224 c 0,0 0.65157,10.19582 3.99822,9.6988 3.346646,-0.497 3.473569,-10.91116 3.473569,-10.91116 l -2.935349,-174.17458 c 0,0 -0.0449,-8.35516 -5.59931,-7.27411 -5.5544,1.08103 -4.54097,9.69881 -4.54097,9.69881 z"
           id="path154"
           sodipodi:nodetypes="cczcczc" /><path
           style="opacity:0.131403;fill:#ffffff;fill-opacity:1;stroke-width:0.229962"
           d="m -106.4883,137.04953 4.46338,167.65191 c 0,0 0.42786,9.88123 2.139728,9.38312 1.711865,-0.49809 1.681269,-10.59477 1.681269,-10.59477 L -101.30984,134.6496 c 0,0 -0.0998,-8.09974 -2.93862,-7.0247 -2.8388,1.07501 -2.23984,9.42463 -2.23984,9.42463 z"
           id="path155"
           sodipodi:nodetypes="cczcczc" /></g><g
         id="g157"
         transform="rotate(37.133213,59.506919,535.85482)"><path
           style="opacity:1;fill:#44240a;fill-opacity:1;stroke-width:0.32611"
           d="m -110.47577,134.61726 5.60384,172.96224 c 0,0 0.65157,10.19582 3.99822,9.6988 3.346646,-0.497 3.473569,-10.91116 3.473569,-10.91116 l -2.935349,-174.17458 c 0,0 -0.0449,-8.35516 -5.59931,-7.27411 -5.5544,1.08103 -4.54097,9.69881 -4.54097,9.69881 z"
           id="path156"
           sodipodi:nodetypes="cczcczc" /><path
           style="opacity:0.131403;fill:#ffffff;fill-opacity:1;stroke-width:0.229962"
           d="m -106.4883,137.04953 4.46338,167.65191 c 0,0 0.42786,9.88123 2.139728,9.38312 1.711865,-0.49809 1.681269,-10.59477 1.681269,-10.59477 L -101.30984,134.6496 c 0,0 -0.0998,-8.09974 -2.93862,-7.0247 -2.8388,1.07501 -2.23984,9.42463 -2.23984,9.42463 z"
           id="path157"
           sodipodi:nodetypes="cczcczc" /></g><g
         id="g15"
         transform="matrix(0.85487004,0,0,0.85487004,9.9739379,52.161519)"><g
           id="g12"
           transform="matrix(1,0,0,0.85202924,-6.671245,50.125747)"><rect
             style="fill:#000000;stroke-width:0.264583"
             id="rect1"
             width="121.95032"
             height="68.313522"
             x="57.635002"
             y="118.75264" /><ellipse
             style="fill:#000000;stroke-width:0.231463"
             id="ellipse1"
             ry="25.217299"
             rx="60.975159"
             cy="187.29948"
             cx="118.60564" /><ellipse
             style="fill:#dfdfcb;fill-opacity:1;stroke-width:0.231463"
             id="ellipse4"
             ry="25.217299"
             rx="60.975159"
             cy="118.71002"
             cx="118.33879" /><path
             id="path7"
             style="fill:#2f730f;stroke-width:0.201702"
             inkscape:transform-center-x="-3.019977"
             inkscape:transform-center-y="-0.32252081"
             d="m 140.89715,125.65093 c -0.34835,4.04292 -14.94994,9.18118 -21.67582,6.57382 -7.01345,-2.71885 -7.15984,-12.12706 1.77797,-15.08275 6.42248,-2.12388 20.39861,2.69728 19.89785,8.50893 z"
             sodipodi:nodetypes="ssss" /><path
             id="path9"
             style="fill:#b47518;fill-opacity:1;stroke-width:0.196794"
             inkscape:transform-center-x="-0.0233581"
             inkscape:transform-center-y="1.5425569"
             d="m 114.27893,117.16962 c -5.46506,-1.45242 -5.38025,-11.40069 1.59551,-14.44141 7.27403,-3.170716 20.46689,-0.33846 20.15072,5.69226 -0.2272,4.33352 -13.89028,10.83699 -21.74623,8.74915 z"
             sodipodi:nodetypes="ssss" /><path
             id="path12"
             style="fill:#c81a1a;fill-opacity:1;stroke-width:0.235234"
             inkscape:transform-center-x="-3.019978"
             inkscape:transform-center-y="-0.43867147"
             d="m 115.27959,121.16058 c -0.34835,5.49889 -14.94995,12.48759 -21.675822,8.94125 -7.01345,-3.69799 -7.159837,-16.49437 1.777979,-20.5145 6.422473,-2.88877 20.398593,3.66866 19.897843,11.57325 z"
             sodipodi:nodetypes="ssss" /></g><path
           style="opacity:0.204969;fill:#ffffff;fill-opacity:1;stroke-width:0.264999;stroke-dasharray:none"
           d="m 168.11078,209.19656 c -1.88886,12.8928 -65.20049,27.61288 -60.57035,7.17772 0.97589,-4.30708 11.20179,-3.87105 11.74138,-8.25421 0.65435,-5.31537 -11.95517,-5.31876 -12.00823,-10.67399 -0.048,-4.84651 10.82113,-4.49975 10.67399,-9.34427 -0.11514,-3.7909 -12.98387,-3.98355 -8.80604,-8.26327 4.17783,-4.27972 25.5142,-4.65345 38.1595,-7.44914 12.6453,-2.79569 20.93551,-10.45763 21.6103,-4.58177 0.67479,5.87586 1.08831,28.49614 -0.80102,41.38893 z"
           id="path13"
           sodipodi:nodetypes="zsssszzzzz" /><path
           style="opacity:0.501362;fill:#ffffff;fill-opacity:1;stroke-width:0.264999;stroke-dasharray:none"
           d="m 164.43869,170.00591 c -6.15055,6.99778 -4.17773,17.03472 -3.98915,23.72697 0.18858,6.69225 -0.13609,18.81137 3.2022,18.15031 3.33829,-0.66106 6.9375,-48.87506 0.78695,-41.87728 z"
           id="path14"
           sodipodi:nodetypes="zzzz" /><path
           id="path15"
           style="opacity:0.506812;fill:#ffffff;stroke-width:0.188261"
           d="m 166.64828,186.07485 c 0,7.78857 -1.95366,13.50204 -2.63546,13.50204 -0.6818,0 -1.22124,-9.19733 -1.2345,-14.10245 -0.0117,-4.32774 -0.44906,-12.40961 1.36792,-14.16916 3.24644,-3.14383 2.50204,6.981 2.50204,14.76957 z"
           sodipodi:nodetypes="sssss" /></g></g></g></svg>
